<svg width="194" height="250" viewBox="0 0 194 250" fill="none" xmlns="http://www.w3.org/2000/svg">
<g clip-path="url(#clip0_1097_1886)">
<path d="M49.2267 61.6328L28.0095 98.2926L66.4771 107.266L78.0852 88.0943L49.2267 61.6328Z" fill="#9C9C9C"/>
<path d="M28.0095 98.2969L62.2948 190.752L83.6736 153.498L66.4771 107.27L28.0095 98.2969Z" fill="#979797"/>
<path d="M82.784 80.3392L82.7122 61.9373L62.2947 39.0508L49.2266 61.6356L60.6819 72.1356L78.6017 69.1189V79.8034L76.5083 80.3392L72.6854 83.1488L78.0851 88.1016L82.784 80.3392Z" fill="#B3B3B3"/>
<path d="M78.6017 79.8018V69.1172L60.6819 72.1339L72.6853 83.1472L76.5083 80.3376L78.6017 79.8018Z" fill="#474747"/>
<path d="M89.891 127.91L81.9441 108.161L90.3088 100.079H96.9978V61.9336H82.7078L82.7797 80.3355L66.4727 107.265L83.6692 153.493H96.9978V141.381H89.891V127.91Z" fill="#E3E3E3"/>
<path d="M96.9977 191.017V153.492H83.669L62.4294 190.746H96.9079L96.9977 191.017Z" fill="#8F8F8F"/>
<path d="M0.835568 171.003L0 78.9883L28.0095 98.2908L62.4295 190.746L0.835568 171.003Z" fill="#A7A7A7"/>
<path d="M0 78.994L22.5783 46.2289L69.8193 13.9141L62.2947 39.0473L28.0095 98.2965L0 78.994Z" fill="#C1C1C1"/>
<path d="M30.1029 0L18.396 21.995L22.5783 46.2278L64.0063 17.8887L52.2635 3.14279L30.1029 0Z" fill="#999999"/>
<path d="M62.2947 39.0449H96.9977V13.0156L69.8193 13.9116L62.2947 39.0449Z" fill="#CFCFCF"/>
<path d="M96.9979 191.023L96.9035 190.752H62.4251L62.3622 190.734L51.0911 210.42L96.9934 250.002V191.023H96.9979Z" fill="#A0A0A0"/>
<path d="M0.835449 171.004L51.0953 210.419L62.3665 190.734L0.835449 171.004Z" fill="#A4A4A4"/>
<path d="M96.998 39.0508V61.9373H82.708L62.2905 39.0508H96.998Z" fill="#9C9C9C"/>
<path d="M144.773 61.6328L165.986 98.2926L127.523 107.266L115.915 88.0943L144.773 61.6328Z" fill="#A3A3A3"/>
<path d="M165.982 98.2969L131.696 190.752L110.326 153.498L127.523 107.27L165.982 98.2969Z" fill="#999999"/>
<path d="M111.216 80.3392L111.292 61.9373L131.701 39.0508L144.778 61.6356L133.322 72.1356L115.398 69.1189V79.8034L117.487 80.3392L121.315 83.1488L115.919 88.1016L111.216 80.3392Z" fill="#B1B1B1"/>
<path d="M115.394 79.8018V69.1172L133.318 72.1339L121.31 83.1472L117.487 80.3376L115.394 79.8018Z" fill="#474747"/>
<path d="M104.109 127.91L112.051 108.161L103.687 100.079H96.9977V61.9336H111.288L111.211 80.3355L127.518 107.265L110.322 153.493H96.9932V141.381H104.1V127.91H104.109Z" fill="white"/>
<path d="M96.9978 191.017V153.492H110.326L131.566 190.746H97.0876L96.9978 191.017Z" fill="#949494"/>
<path d="M193.16 171.002L193.995 78.9922L165.981 98.2947L131.566 190.75L193.16 171.002Z" fill="#A5A5A5"/>
<path d="M194 78.994L171.422 46.2289L124.181 13.9141L131.705 39.0473L165.986 98.292L194 78.994Z" fill="#D2D2D2"/>
<path d="M163.897 0L175.604 21.995L171.422 46.2278L129.985 17.8887L141.736 3.14279L163.897 0Z" fill="#939393"/>
<path d="M131.696 39.0449H96.9978V13.0156L124.172 13.9116L131.696 39.0449Z" fill="#E8E8E8"/>
<path d="M96.9978 191.023L97.0921 190.752H131.571L131.633 190.734L142.896 210.42L97.0023 250.002V191.023H96.9978Z" fill="#9D9D9D"/>
<path d="M193.16 171.004L142.891 210.419L131.629 190.734L193.16 171.004Z" fill="#A0A0A0"/>
<path d="M96.9978 39.0508V61.9373H111.288L131.696 39.0508H96.9978Z" fill="#A3A3A3"/>
<path d="M103.687 100.082H90.3088L81.9441 108.164L89.891 127.912V141.379H96.9978H104.105V127.912L112.047 108.164L103.687 100.082Z" fill="#474747"/>
</g>
<defs>
<clipPath id="clip0_1097_1886">
<rect width="194" height="250" fill="white"/>
</clipPath>
</defs>
</svg>
