<svg width="20" height="20" viewBox="0 0 20 20" fill="none" xmlns="http://www.w3.org/2000/svg">
<path d="M13.9582 2.66183C12.5324 1.07051 10.5721 0.129224 8.43848 0.01234C6.30484 -0.104871 4.25349 0.616024 2.66183 2.04181C1.07018 3.4676 0.129225 5.42786 0.0123401 7.56149C-0.104871 9.69511 0.616027 11.7468 2.04182 13.3381C3.46762 14.9298 5.42789 15.8707 7.56152 15.9879C7.71171 15.9961 7.86091 16 8.01012 16C9.98116 16 11.8585 15.284 13.3382 13.9581C14.9298 12.5323 15.8708 10.5721 15.9877 8.43845C16.1049 6.30482 15.384 4.25348 13.9582 2.66183ZM3.51986 2.99942C4.79939 1.85311 6.40051 1.28892 7.99641 1.28892C9.84012 1.28892 11.6766 2.04182 13.0006 3.51985C15.4711 6.27707 15.2377 10.5303 12.4801 13.0005C11.1445 14.1974 9.42286 14.8021 7.63204 14.7038C5.84123 14.6056 4.19603 13.8161 2.99943 12.4801C0.528853 9.72287 0.762299 5.46966 3.51986 2.99942Z" fill="#AD001E"/>
<path d="M14.0644 15.3008L17.805 19.7826C18.0004 20.017 18.3482 20.0689 18.6089 19.9038C18.84 19.7578 19.0965 19.5636 19.3474 19.3081C19.5952 19.0559 19.7802 18.8018 19.9173 18.5757C20.0634 18.3353 20.0117 18.0289 19.7955 17.8444L15.3738 14.0702C15.2461 13.961 15.0486 13.9818 14.9476 14.1147C14.8498 14.2443 14.7297 14.3843 14.5832 14.5246C14.4246 14.6766 14.267 14.7992 14.122 14.8973C13.9856 14.99 13.9595 15.1752 14.0644 15.3008Z" fill="#AD001E"/>
</svg>
