<svg width="72" height="80" viewBox="0 0 72 80" fill="none" xmlns="http://www.w3.org/2000/svg">
<path d="M36.0022 80C35.4217 80 34.8389 79.8919 34.285 79.6757C27.6677 77.0922 18.2721 72.0312 11.0898 62.5864C3.67387 52.8327 1.88106 42.5804 1.11367 38.2011C0.0482134 32.1098 0.0170728 26.1971 0.00150253 23.3577C-0.0185164 19.605 0.161654 15.8125 0.533117 12.0862C0.715511 10.255 1.97448 8.69965 3.7406 8.12603C8.32493 6.63684 13.0183 5.25796 17.6871 4.02909C23.4192 2.52005 29.2848 1.19411 35.1169 0.0843876C35.7019 -0.0281292 36.2981 -0.0281292 36.8831 0.0843876C42.7152 1.19411 48.5808 2.52005 54.3129 4.02909C58.9817 5.25796 63.6751 6.63684 68.2594 8.12603C70.0255 8.69965 71.2845 10.2528 71.4669 12.0862C71.8383 15.8125 72.0185 19.605 71.9985 23.3577C71.9829 26.1993 71.954 32.1098 70.8863 38.2011C70.1189 42.5804 68.3261 52.8349 60.908 62.5864C53.7257 72.0312 44.3301 77.0922 37.715 79.6757C37.1655 79.8919 36.585 80 36.0022 80ZM5.39105 12.6973C5.04405 16.214 4.87723 19.7925 4.89502 23.3335C4.90837 26.0427 4.93728 31.6796 5.93378 37.3716C6.69895 41.7465 8.29157 50.8471 14.9979 59.6653C21.4662 68.1703 29.9743 72.768 36.0022 75.1309C42.0279 72.768 50.5382 68.1703 57.0065 59.6653C63.7107 50.8493 65.3033 41.7465 66.0707 37.3716C67.0672 31.6773 67.0961 26.0427 67.1094 23.3335C67.1272 19.7925 66.9604 16.2162 66.6134 12.6973C62.1558 11.2522 57.596 9.91527 53.0606 8.7195C47.4508 7.24355 41.7121 5.94409 36.0022 4.85642C30.2924 5.94409 24.5536 7.24134 18.9439 8.7195C14.4085 9.91527 9.8486 11.2522 5.39105 12.6973Z" fill="#3A3A3A"/>
<path d="M50.7621 30.7803H42.9144C42.1974 30.7803 41.6171 30.1963 41.6171 29.4747V21.579C41.6171 20.8574 41.0369 20.2734 40.3199 20.2734H31.6758C30.9587 20.2734 30.3785 20.8574 30.3785 21.579V29.4769C30.3785 30.1985 29.7982 30.7825 29.0812 30.7825H21.2358C20.5187 30.7825 19.9385 31.3665 19.9385 32.0881V40.7875C19.9385 41.5092 20.5187 42.0931 21.2358 42.0931H29.0834C29.8004 42.0931 30.3807 42.6771 30.3807 43.3987V51.2966C30.3807 52.0182 30.9609 52.6022 31.678 52.6022H40.3221C41.0391 52.6022 41.6193 52.0182 41.6193 51.2966V43.3965C41.6193 42.6749 42.1996 42.0909 42.9166 42.0909H50.7643C51.4813 42.0909 52.0616 41.507 52.0616 40.7853V32.0859C52.0571 31.3642 51.4769 30.7803 50.7621 30.7803Z" fill="#AD001E"/>
</svg>
