<svg width="30" height="30" viewBox="0 0 30 30" fill="none" xmlns="http://www.w3.org/2000/svg">
<path d="M29.0795 14.8874C29.0795 6.87045 22.5567 0.347656 14.5398 0.347656C6.5228 0.347656 0 6.87045 0 14.8874C0 19.1219 1.82091 22.9387 4.71934 25.5982L4.70559 25.6103L5.17721 26.0079C5.20788 26.0339 5.24119 26.055 5.27185 26.0804C5.52246 26.2882 5.78206 26.4854 6.04642 26.6762C6.13208 26.7381 6.21773 26.8 6.30497 26.8602C6.5873 27.0548 6.87704 27.2393 7.17312 27.4143C7.23763 27.4524 7.30266 27.4894 7.36769 27.5264C7.6918 27.7109 8.02277 27.8849 8.36168 28.0446C8.38653 28.0562 8.41191 28.0668 8.43676 28.0784C9.54125 28.5918 10.7203 28.9688 11.9533 29.1914C11.9855 29.1972 12.0178 29.203 12.0505 29.2088C12.4333 29.2749 12.8204 29.3278 13.2121 29.3632C13.2597 29.3674 13.3073 29.3701 13.3554 29.3743C13.7456 29.4065 14.14 29.4272 14.5398 29.4272C14.9358 29.4272 15.3265 29.4065 15.7146 29.3754C15.7637 29.3711 15.8129 29.3685 15.8621 29.3643C16.2507 29.3288 16.6345 29.2775 17.0136 29.2125C17.0464 29.2067 17.0797 29.2009 17.1125 29.1945C18.327 28.9767 19.4891 28.6082 20.5793 28.108C20.6195 28.0895 20.6602 28.0721 20.7004 28.053C21.0266 27.8997 21.3454 27.7342 21.6579 27.5581C21.7356 27.5143 21.8128 27.4699 21.89 27.4244C22.1744 27.2568 22.4541 27.0818 22.7259 26.8957C22.8237 26.829 22.9194 26.7587 23.0162 26.6889C23.2483 26.5219 23.4762 26.3495 23.6977 26.1692C23.7469 26.1296 23.7997 26.0952 23.8478 26.0545L24.3316 25.6505L24.3173 25.6384C27.2412 22.9779 29.0795 19.1436 29.0795 14.8874ZM1.05744 14.8874C1.05744 7.4531 7.10545 1.40509 14.5398 1.40509C21.9741 1.40509 28.0221 7.4531 28.0221 14.8874C28.0221 18.8935 26.2641 22.4951 23.4809 24.9664C23.3255 24.859 23.169 24.7628 23.0088 24.6824L18.5321 22.4444C18.1303 22.2435 17.8807 21.8395 17.8807 21.3906V19.8272C17.9844 19.6993 18.0938 19.5544 18.2069 19.3953C18.7864 18.5768 19.2512 17.6664 19.5901 16.6866C20.26 16.3684 20.6925 15.7011 20.6925 14.9477V13.0734C20.6925 12.615 20.5243 12.1703 20.2235 11.8208V9.35332C20.251 9.07838 20.3483 7.5303 19.2279 6.25291C18.2535 5.14049 16.6763 4.5774 14.5398 4.5774C12.4032 4.5774 10.826 5.14049 9.85161 6.25238C8.73125 7.52977 8.82854 9.07891 8.85603 9.35279V11.8203C8.55572 12.1698 8.38706 12.6145 8.38706 13.0729V14.9472C8.38706 15.5293 8.64825 16.0723 9.09554 16.4387C9.5238 18.1163 10.4052 19.3863 10.7309 19.8167V21.3468C10.7309 21.7782 10.4956 22.1747 10.1165 22.382L5.93592 24.6624C5.80268 24.7348 5.67051 24.8194 5.53833 24.914C2.78952 22.4439 1.05744 18.8644 1.05744 14.8874Z" fill="#AD001E"/>
</svg>
