<svg width="64" height="82" viewBox="0 0 64 82" fill="none" xmlns="http://www.w3.org/2000/svg">
<path d="M16.1833 20.2158L9.20819 32.2405L21.8544 35.1844L25.671 28.8957L16.1833 20.2158Z" fill="#C30020"/>
<path d="M9.20825 32.2412L20.4797 62.5671L27.5075 50.3481L21.8545 35.1851L9.20825 32.2412Z" fill="#AC001E"/>
<path d="M27.2159 26.3518L27.1916 20.3162L20.4798 12.8086L16.1833 20.217L19.9493 23.661L25.8412 22.6709V26.1756L25.1528 26.3518L23.8954 27.273L25.6711 28.8968L27.2159 26.3518Z" fill="#DF2948"/>
<path d="M25.8411 26.1756V22.6709L19.9493 23.661L23.8954 27.273L25.1528 26.3518L25.8411 26.1756Z" fill="black"/>
<path d="M29.5525 41.9554L26.9407 35.4784L29.6902 32.8281H31.889V20.3154H27.1917L27.216 26.3511L21.8546 35.1848L27.5076 50.3478H31.889V46.3733H29.5525V41.9554Z" fill="#FFA700"/>
<path d="M31.889 62.6548V50.3467H27.5076L20.5244 62.5657H31.8587L31.889 62.6548Z" fill="#7E001D"/>
<path d="M0.275359 56.0893L0 25.9092L9.20832 32.2404L20.5243 62.5663L0.275359 56.0893Z" fill="#FF0013"/>
<path d="M0 25.9099L7.42254 15.1628L22.954 4.56348L20.4798 12.808L9.20832 32.2411L0 25.9099Z" fill="#FF4904"/>
<path d="M9.89674 0L6.04779 7.21399L7.42256 15.163L21.0427 5.86757L17.1816 1.03057L9.89674 0Z" fill="#A10A27"/>
<path d="M20.4797 12.8077H31.8888V4.26953L22.9539 4.56311L20.4797 12.8077Z" fill="#FF6445"/>
<path d="M31.8889 62.6567L31.8585 62.5676H20.5243L20.504 62.5615L16.7988 69.0183L31.8889 82.0006V62.6567Z" fill="#D8001B"/>
<path d="M0.27533 56.0898L16.7989 69.0175L20.5041 62.5608L0.27533 56.0898Z" fill="#EE001E"/>
<path d="M31.8888 12.8086V20.3162H27.1915L20.4796 12.8086H31.8888Z" fill="#C30020"/>
<path d="M47.5946 20.2158L54.5677 32.2405L41.9234 35.1844L38.1069 28.8957L47.5946 20.2158Z" fill="#931B7F"/>
<path d="M54.5677 32.2412L43.2962 62.5671L36.2705 50.3481L41.9235 35.1851L54.5677 32.2412Z" fill="#8B0576"/>
<path d="M36.562 26.3518L36.5863 20.3162L43.2962 12.8086L47.5946 20.217L43.8287 23.661L37.9368 22.6709V26.1756L38.6232 26.3518L39.8805 27.273L38.1069 28.8968L36.562 26.3518Z" fill="#9D359D"/>
<path d="M37.9367 26.1756V22.6709L43.8286 23.661L39.8804 27.273L38.6231 26.3518L37.9367 26.1756Z" fill="black"/>
<path d="M34.2254 41.9554L36.8373 35.4784L34.0877 32.8281H31.8889V20.3154H36.5862L36.5619 26.3511L41.9233 35.1848L36.2704 50.3478H31.8889V46.3733H34.2254V41.9554Z" fill="#FFF100"/>
<path d="M31.8889 62.6548V50.3467H36.2704L43.2535 62.5657H31.9193L31.8889 62.6548Z" fill="#5B065A"/>
<path d="M63.5026 56.0893L63.778 25.9092L54.5677 32.2404L43.2537 62.5663L63.5026 56.0893Z" fill="#D9006B"/>
<path d="M63.778 25.9099L56.3555 15.1628L40.824 4.56348L43.2982 12.808L54.5677 32.2411L63.778 25.9099Z" fill="#E5689E"/>
<path d="M53.8814 0L57.7303 7.21399L56.3556 15.163L42.7334 5.86757L46.5965 1.03057L53.8814 0Z" fill="#59106B"/>
<path d="M43.2961 12.8077H31.8889V4.26953L40.8219 4.56311L43.2961 12.8077Z" fill="#E79AD0"/>
<path d="M31.8889 62.6567L31.9193 62.5676H43.2535L43.2738 62.5615L46.977 69.0183L31.8889 82.0006V62.6567Z" fill="#A00471"/>
<path d="M63.5027 56.0898L46.9771 69.0175L43.2739 62.5608L63.5027 56.0898Z" fill="#B9016D"/>
<path d="M31.8889 12.8086V20.3162H36.5862L43.2961 12.8086H31.8889Z" fill="#931B7F"/>
<path d="M34.0877 32.8281H29.6901L26.9406 35.4785L29.5524 41.9555V46.3733H31.8889H34.2254V41.9555L36.8373 35.4785L34.0877 32.8281Z" fill="black"/>
</svg>
