<svg width="76" height="76" viewBox="0 0 76 76" fill="none" xmlns="http://www.w3.org/2000/svg">
<path d="M52.5244 56.2355C38.4243 67.4708 19.5744 64.2702 9.43287 52.0309C-0.60592 39.9146 0.221776 22.0246 11.3782 10.8333C22.4906 -0.315809 40.1255 -1.21141 52.5079 8.82738C64.7894 18.7854 68.1204 37.8573 56.7822 51.974C56.9547 52.1575 57.1309 52.3502 57.3144 52.5356C62.5651 57.7844 67.812 63.0369 73.0682 68.2802C73.9161 69.1244 74.4208 70.0805 74.1583 71.2991C73.9381 72.3214 73.371 73.1179 72.3267 73.3895C71.1136 73.7052 69.9299 73.584 68.9829 72.6554C67.3771 71.0826 65.8006 69.4823 64.2113 67.8948C60.5151 64.2004 56.8208 60.5042 53.1246 56.8099C52.9374 56.6208 52.7428 56.4428 52.5244 56.2355ZM8.42165 32.4837C8.5024 46.1453 19.3395 57.0907 33.08 57.1311C46.6627 57.1696 57.6613 46.1122 57.698 32.5296C57.7329 18.9598 46.6241 7.8492 33.0543 7.88223C19.4607 7.91343 8.45652 18.9066 8.42165 32.4837Z" fill="white"/>
<path d="M36.0493 29.5045C38.4352 29.5045 40.7017 29.4971 42.97 29.5063C44.4786 29.5118 45.5908 30.2147 46.0588 31.426C46.8112 33.375 45.4201 35.4433 43.2784 35.4837C41.155 35.5241 39.0298 35.4947 36.9046 35.4947C36.6421 35.4947 36.3815 35.4947 36.0493 35.4947C36.0493 36.5738 36.0548 37.5704 36.0475 38.5669C36.0365 40.081 36.0787 41.5969 35.9796 43.1055C35.8823 44.603 34.5298 45.7262 33.0304 45.706C31.4961 45.6858 30.1637 44.5058 30.116 42.977C30.0499 40.8059 30.0848 38.6311 30.0774 36.4582C30.0756 36.1701 30.0774 35.8801 30.0774 35.4929C29.7599 35.4929 29.5012 35.4929 29.2424 35.4929C27.2145 35.4929 25.1884 35.4965 23.1604 35.491C21.2224 35.4855 19.8716 34.2706 19.8551 32.5308C19.8386 30.7671 21.2077 29.5118 23.1824 29.5026C25.1847 29.4935 27.1869 29.5008 29.191 29.5008C29.4553 29.5008 29.7196 29.5008 30.0793 29.5008C30.0793 29.176 30.0793 28.9153 30.0793 28.6547C30.0866 26.458 30.0591 24.2593 30.1123 22.0625C30.1453 20.7118 31.2006 19.585 32.4871 19.3666C33.8819 19.1298 35.2345 19.7777 35.7447 21.033C35.9576 21.5578 36.0273 22.169 36.0365 22.7434C36.0714 24.6961 36.0493 26.6507 36.0493 28.6034C36.0493 28.875 36.0493 29.1392 36.0493 29.5045Z" fill="white"/>
</svg>
