<svg width="88" height="113" viewBox="0 0 88 113" fill="none" xmlns="http://www.w3.org/2000/svg">
<path d="M29.8768 47.9165L13.461 44.0951L22.4221 28.6466L34.7352 39.9113L29.8768 47.9165Z" fill="#AD001E" stroke="white"/>
<path d="M37.3557 69.336L28.3194 85.0473L13.4822 45.1276L29.7416 48.9126L37.3557 69.336Z" fill="#AD001E" stroke="white"/>
<path d="M35.264 39.0409L33.7164 37.6256L34.879 36.7738L35.734 36.555L36.1101 36.4588V36.0707V31.241V30.65L35.5272 30.7479L27.6484 32.0719L22.9357 27.762L28.3086 18.4976L36.9718 28.1879L37.004 36.1745L35.264 39.0409Z" fill="#AD001E" stroke="white"/>
<path d="M34.5375 35.8292L34.4439 35.8532L34.3659 35.9103L32.9639 36.9375L28.5845 32.9288L35.11 31.8322V35.6827L34.5375 35.8292Z" fill="#AD001E" stroke="white"/>
<path d="M36.7782 48.5302L36.5353 48.7643L36.6615 49.0772L40.2244 57.9128V63.9038V64.4038H40.7244H43.4442V68.8807H38.2536L30.6696 48.538L37.9321 36.5718L38.0052 36.4514L38.0046 36.3104L37.9732 28.4951H43.4442V44.738H40.9142H40.7124L40.5672 44.878L36.7782 48.5302Z" fill="#AD001E" stroke="white"/>
<path d="M43.4443 69.8799V85.7182H29.1451L38.1967 69.8799H43.4443Z" fill="#AD001E" stroke="white"/>
<path d="M27.4548 85.429L0.876135 76.9273L0.508748 36.6607L12.2761 44.7514L27.4548 85.429Z" fill="#AD001E" stroke="white"/>
<path d="M27.7599 17.4494L12.5278 43.7109L0.696157 35.576L10.5871 21.2549L30.7465 7.49733L27.7599 17.4494Z" fill="#AD001E" stroke="white"/>
<path d="M10.5887 20.0439L8.85592 10.0251L13.9144 0.544084L23.41 1.8874L28.2705 7.9765L10.5887 20.0439Z" fill="#AD001E" stroke="white"/>
<path d="M43.4439 6.39951V17.1487H28.8938L32.0068 6.77531L43.4439 6.39951Z" fill="#AD001E" stroke="white"/>
<path d="M23.7887 95L28.5401 86.7203H43.4441V111.91L23.7887 95Z" fill="#AD001E" stroke="white"/>
<path d="M27.5137 86.4989L23.003 94.3594L2.88713 78.6211L27.5137 86.4989Z" fill="#AD001E" stroke="white"/>
<path d="M43.4439 18.1504V27.4961H37.6946L29.3394 18.1504H43.4439Z" fill="#AD001E" stroke="white"/>
<path d="M53.1532 39.9113L65.4662 28.6467L74.4247 44.0951L58.0115 47.9165L53.1532 39.9113Z" fill="#AD001E" stroke="white"/>
<path d="M58.1468 48.9126L74.4034 45.1277L59.5662 85.0471L50.5326 69.3361L58.1468 48.9126Z" fill="#AD001E" stroke="white"/>
<path d="M52.154 36.555L53.0064 36.7737L54.1694 37.6258L52.6241 39.0406L50.8844 36.1745L50.9165 28.1878L59.5771 18.4975L64.9526 27.7621L60.2399 32.0719L52.3611 30.7479L51.7783 30.65V31.241V36.0707V36.4585L52.154 36.555Z" fill="#AD001E" stroke="white"/>
<path d="M53.5196 35.9103L53.4418 35.8533L53.3483 35.8293L52.7782 35.683V31.8322L59.3034 32.9288L54.9216 36.9376L53.5196 35.9103Z" fill="#AD001E" stroke="white"/>
<path d="M49.6347 68.8807H44.4441V64.4038H47.1639H47.6639V63.9038V57.9128L51.2268 49.0772L51.353 48.7643L51.1101 48.5302L47.3211 44.878L47.1759 44.738H46.9741H44.4441V28.4951H49.9151L49.8837 36.3104L49.8831 36.4514L49.9562 36.5718L57.2187 48.538L49.6347 68.8807Z" fill="#AD001E" stroke="white"/>
<path d="M49.6917 69.8799L58.7433 85.7182H44.4441V69.8799H49.6917Z" fill="#AD001E" stroke="white"/>
<path d="M60.4336 85.429L75.6096 44.7514L87.3798 36.6606L87.0124 76.9273L60.4336 85.429Z" fill="#AD001E" stroke="white"/>
<path d="M57.142 7.49733L77.3014 21.2549L87.1923 35.576L75.358 43.7109L60.1286 17.4494L57.142 7.49733Z" fill="#AD001E" stroke="white"/>
<path d="M64.4784 1.88741L73.9741 0.544083L79.0326 10.0251L77.2998 20.044L59.6153 7.97655L64.4784 1.88741Z" fill="#AD001E" stroke="white"/>
<path d="M55.8784 6.7753L58.9915 17.1487H44.4441V6.39951L55.8784 6.7753Z" fill="#AD001E" stroke="white"/>
<path d="M59.348 86.7203L64.0967 95L44.4441 111.91V86.7203H59.348Z" fill="#AD001E" stroke="white"/>
<path d="M60.3745 86.4989L85.0008 78.6212L64.8827 94.3593L60.3745 86.4989Z" fill="#AD001E" stroke="white"/>
<path d="M50.1934 27.4961H44.4441V18.1504H58.5461L50.1934 27.4961Z" fill="#AD001E" stroke="white"/>
<path d="M41.2244 57.8161V57.7191L41.1881 57.6291L37.715 49.0164L41.1158 45.7383H46.7724L50.1733 49.0164L46.7002 57.6291L46.6639 57.7191V57.8161V63.4041H43.9441H41.2244V57.8161Z" fill="#AD001E" stroke="white"/>
</svg>
