<svg width="79" height="82" viewBox="0 0 79 82" fill="none" xmlns="http://www.w3.org/2000/svg">
<path d="M72.0744 73.6314C72.0744 75.4317 72.068 77.0887 72.0765 78.7435C72.0807 79.6205 71.9649 80.4427 71.1141 80.9233C70.2171 81.4314 69.4696 81.0224 68.7178 80.5165C65.5382 78.3746 62.3543 76.237 59.1452 74.1394C58.6967 73.8464 58.0902 73.6567 57.5553 73.6525C52.3037 73.6166 47.0499 73.6525 41.7982 73.6103C40.9811 73.604 40.0988 73.4543 39.3639 73.117C37.6688 72.3391 36.9108 70.855 36.9066 69.0378C36.8834 60.7782 36.8834 52.5186 36.9045 44.2591C36.9108 41.5691 38.7933 39.676 41.476 39.6697C52.2447 39.6507 63.0113 39.6528 73.78 39.6697C76.469 39.6739 78.3621 41.5459 78.3705 44.2401C78.3958 52.4997 78.3937 60.7592 78.3726 69.0188C78.3663 71.7488 76.4859 73.5745 73.7337 73.6293C73.2115 73.6398 72.6934 73.6314 72.0744 73.6314ZM57.6438 44.5816C56.5004 44.5879 55.7381 45.1571 55.2601 46.403C54.3104 48.8779 53.3776 51.3571 52.4342 53.8341C50.8486 58.0039 49.2588 62.1717 47.6753 66.3415C47.2604 67.4377 47.4352 68.3421 48.1533 68.9345C49.1703 69.7735 50.6738 69.4173 51.2339 68.1482C51.7014 67.0941 52.0952 66.0063 52.4826 64.9185C52.649 64.4548 52.8891 64.2671 53.3986 64.2714C56.2077 64.2945 59.0188 64.2945 61.8279 64.2714C62.3564 64.2671 62.6323 64.4274 62.8049 64.9417C63.1566 65.9853 63.5651 67.0119 63.9694 68.0364C64.2474 68.7384 64.7254 69.2381 65.5129 69.335C67.1785 69.5395 68.2335 68.1819 67.6544 66.5418C67.1406 65.0809 66.5742 63.6389 66.0288 62.1907C64.0389 56.9119 62.049 51.6311 60.0527 46.3524C59.6021 45.1445 58.8083 44.5774 57.6438 44.5816Z" fill="#3A3A3A"/>
<path d="M10.6712 70.3807C13.9716 67.3743 17.1353 64.5199 20.2674 61.6191C20.9742 60.965 21.6968 60.6611 22.6234 60.6809C25.0427 60.7337 27.464 60.6963 29.8834 60.7007C31.1821 60.7029 31.9938 61.454 32.0077 62.6543C32.0216 63.8811 31.194 64.6564 29.8537 64.6586C27.7056 64.663 25.5555 64.6784 23.4074 64.6476C22.8293 64.6388 22.3878 64.8062 21.9364 65.2203C18.0896 68.7531 14.225 72.2617 10.3643 75.7769C10.2495 75.8804 10.1327 75.9817 10.0139 76.0831C9.43383 76.5764 8.79633 76.6953 8.13705 76.3363C7.45797 75.9641 7.11546 75.3276 7.11348 74.4774C7.1115 71.5371 7.1115 68.5945 7.1115 65.6541C7.1115 65.3568 7.1115 65.0595 7.1115 64.663C6.17901 64.663 5.29799 64.6674 4.41895 64.663C1.75214 64.6498 0 62.7182 0 59.7646C0 41.4816 0 23.2029 0.00197982 4.92427C0.00197982 1.95308 1.74224 0.00165188 4.3952 0.00165188C26.3751 -0.000550628 48.357 -0.000550628 70.337 0.00165188C72.9127 0.00165188 74.6906 1.95308 74.6945 4.79872C74.7025 14.3092 74.7005 23.8196 74.6965 33.3301C74.6965 35.0612 73.4195 36.114 72.1643 35.4247C71.4536 35.0326 71.1368 34.3608 71.1388 33.482C71.1447 30.98 71.1408 28.4801 71.1408 25.9781C71.1408 19.0512 71.1408 12.1243 71.1408 5.19738C71.1408 4.05207 71.0596 3.95957 70.0519 3.95957C48.2442 3.95957 26.4365 3.95957 4.62881 3.95957C3.66068 3.95957 3.55971 4.0719 3.55971 5.13571C3.55971 23.2778 3.55971 41.4177 3.55971 59.5598C3.55971 60.5686 3.6785 60.6985 4.58724 60.7007C5.94539 60.7051 7.30355 60.6941 8.6617 60.7051C9.97036 60.7139 10.6653 61.487 10.6692 62.9539C10.6772 65.3612 10.6712 67.7708 10.6712 70.3807Z" fill="#3A3A3A"/>
<path d="M23.5391 8.30084C31.8396 8.27848 38.713 15.1191 38.7333 23.427C38.7537 31.8325 31.9758 38.7076 23.6448 38.734C15.1288 38.7605 8.32247 31.9849 8.3001 23.4555C8.27774 15.1354 15.1247 8.32522 23.5391 8.30084ZM26.4889 21.6528C26.4584 21.1834 26.4462 20.779 26.4055 20.3766C26.1657 17.948 25.755 15.556 24.6552 13.351C24.397 12.8369 23.9131 12.4345 23.535 11.9813C23.1488 12.4243 22.6446 12.8084 22.3945 13.3185C21.1097 15.9259 20.7092 18.7426 20.5385 21.6549C22.5287 21.6528 24.4681 21.6528 26.4889 21.6528ZM26.4909 25.3922C24.4519 25.3922 22.5145 25.3922 20.5324 25.3922C20.7072 28.2577 21.0955 31.0277 22.3335 33.5985C22.5999 34.1513 23.1386 34.574 23.5513 35.0556C23.9396 34.574 24.4376 34.1452 24.6958 33.6026C25.9258 31.0277 26.3263 28.2597 26.4909 25.3922ZM16.6474 21.665C17.176 18.7955 17.6842 16.0356 18.1965 13.2616C14.8686 15.0764 12.8417 17.8627 12.1058 21.665C13.7037 21.665 15.2426 21.665 16.6474 21.665ZM28.843 13.2697C29.3553 16.0824 29.8636 18.8646 30.3698 21.6386C31.8274 21.6386 33.3521 21.6386 34.9317 21.6386C34.1531 17.8423 32.1527 15.0541 28.843 13.2697ZM18.1863 33.7692C17.67 30.9403 17.1658 28.1764 16.6576 25.3861C15.2284 25.3861 13.6955 25.3861 12.1078 25.3861C12.8519 29.1885 14.8767 31.9707 18.1863 33.7692ZM34.8748 25.3861C33.2871 25.3861 31.7522 25.3861 30.3759 25.3861C29.8555 28.2211 29.3492 30.9891 28.8512 33.6981C31.6058 32.7002 34.3828 28.9365 34.8748 25.3861Z" fill="#AD001E"/>
<path d="M54.4054 8.30597C57.8384 8.30597 61.2697 8.31211 64.7028 8.30187C65.3603 8.29982 65.8877 8.55784 66.2148 9.27865C66.7155 10.3844 66.1514 11.7605 65.1183 11.9612C64.9147 12.0001 64.7028 11.9878 64.4958 11.9878C57.7767 11.9899 51.0575 11.9878 44.3383 11.9878C44.1931 11.9878 44.0463 11.994 43.9011 11.9817C43.0566 11.9182 42.4341 11.1544 42.4224 10.1715C42.4107 9.15783 43.0466 8.33668 43.9211 8.31621C45.1278 8.28754 46.3344 8.30801 47.541 8.30597C49.8292 8.30597 52.1173 8.30597 54.4054 8.30597Z" fill="#3A3A3A"/>
<path d="M56.2507 17.5267C59.1555 17.5267 62.059 17.5328 64.9638 17.5226C65.5202 17.5205 65.9665 17.7785 66.2433 18.4994C66.6669 19.6051 66.1896 20.9812 65.3155 21.1819C65.1432 21.2208 64.9638 21.2085 64.7887 21.2085C59.1033 21.2106 53.4178 21.2085 47.7324 21.2085C47.6095 21.2085 47.4853 21.2147 47.3624 21.2024C46.6478 21.1389 46.1211 20.3751 46.1112 19.3922C46.1013 18.3785 46.6394 17.5574 47.3794 17.5369C48.4004 17.5082 49.4214 17.5287 50.4424 17.5267C52.3785 17.5267 54.3146 17.5267 56.2507 17.5267Z" fill="#3A3A3A"/>
<path d="M56.2507 26.7493C59.1555 26.7493 62.059 26.7555 64.9638 26.7452C65.5202 26.7432 65.9665 27.0012 66.2433 27.722C66.6669 28.8278 66.1896 30.2039 65.3155 30.4046C65.1432 30.4435 64.9638 30.4312 64.7887 30.4312C59.1033 30.4332 53.4178 30.4312 47.7324 30.4312C47.6095 30.4312 47.4853 30.4373 47.3624 30.425C46.6478 30.3616 46.1211 29.5978 46.1112 28.6148C46.1013 27.6012 46.6394 26.78 47.3794 26.7596C48.4004 26.7309 49.4214 26.7514 50.4424 26.7493C52.3785 26.7493 54.3146 26.7493 56.2507 26.7493Z" fill="#3A3A3A"/>
<path d="M16.5961 43.3489C18.9728 43.3489 21.3483 43.3551 23.725 43.3448C24.1803 43.3428 24.5454 43.6008 24.7718 44.3216C25.1185 45.4274 24.7279 46.8035 24.0127 47.0042C23.8718 47.0431 23.725 47.0308 23.5818 47.0308C18.93 47.0328 14.2783 47.0308 9.62658 47.0308C9.52606 47.0308 9.42438 47.0369 9.32386 47.0247C8.73922 46.9612 8.30825 46.1974 8.30016 45.2144C8.29207 44.2008 8.73229 43.3797 9.33773 43.3592C10.1731 43.3305 11.0085 43.351 11.8438 43.3489C13.4279 43.3489 15.012 43.3489 16.5961 43.3489Z" fill="#3A3A3A"/>
<path d="M18.4396 51.6497C21.3445 51.6497 24.2479 51.6559 27.1528 51.6456C27.7092 51.6436 28.1554 51.9016 28.4322 52.6224C28.8559 53.7282 28.3786 55.1043 27.5044 55.305C27.3321 55.3439 27.1528 55.3316 26.9777 55.3316C21.2922 55.3336 15.6068 55.3316 9.92137 55.3316C9.79851 55.3316 9.67423 55.3377 9.55138 55.3254C8.83681 55.262 8.31007 54.4981 8.30018 53.5152C8.2903 52.5016 8.82834 51.6804 9.56832 51.66C10.5893 51.6313 11.6103 51.6518 12.6313 51.6497C14.5674 51.6497 16.5035 51.6497 18.4396 51.6497Z" fill="#3A3A3A"/>
<path d="M57.6531 51.6445C58.7575 54.4949 59.7948 57.1772 60.8667 59.9445C58.6803 59.9445 56.6016 59.9445 54.4111 59.9445C55.483 57.1989 56.5346 54.5048 57.6531 51.6445Z" fill="#3A3A3A"/>
</svg>
